<?xml version="1.0" encoding="utf-8"?>
<!-- Generator: Adobe Illustrator 19.0.0, SVG Export Plug-In . SVG Version: 6.00 Build 0)  -->
<svg version="1.1" id="layer" xmlns="http://www.w3.org/2000/svg" xmlns:xlink="http://www.w3.org/1999/xlink" x="0px" y="0px"
	 viewBox="-153 -46 652 652" style="enable-background:new -153 -46 652 652;" xml:space="preserve">
<style type="text/css">
	.st0{fill:#AC0047;}
	.st1{fill:#FFFFFF;}
	.st2{fill:#CCC7BE;}
</style>
<path class="st0" d="M416.3,445.7c-1.2,32.3-23.5,59.9-54.8,67.8c-124.6,22-252.1,22-376.7,0c-31.3-8-53.5-35.6-54.7-67.8V114.3
	c1.2-32.2,23.5-59.8,54.8-67.8c124.6-22,252.1-22,376.7,0c31.3,7.9,53.6,35.5,54.8,67.8L416.3,445.7z"/>
<path class="st1" d="M200.2,178.8c-26.9-4.8-44.9,10-44.9,33V289L113,263.8v-52c0-46.8,32.4-80,87.2-72.8V178.8z M3,450h19v-49
	c-0.1-4.7,1.6-9.2,4.9-12.6c3.5-3.2,8.2-5,13-4.8c3.4,0.1,6.7,0.4,10,1v-19c-3.9-0.6-7.8-0.9-11.8-1l0,0
	C19.5,363.8,3.8,378.3,3,396.9c-0.1,1.3,0,2.7,0.1,4L3,450z M68.6,442.5c-4.8-5.5-7.4-12.7-7-20l0,0v-30c-0.4-7.3,2.2-14.5,7-20l0,0
	c5.3-5.2,12.6-8,20-7.7h30.5v18.7h-30c-2.4-0.3-4.9,0.4-6.8,1.9l0,0c-1.5,1.9-2.2,4.4-1.9,6.8l0,0v6.2h33.1v17.8H80.2v6.2
	c-0.3,2.5,0.4,4.9,1.9,6.9l0,0c1.9,1.5,4.4,2.2,6.8,1.9h30V450H89c-7.4,0.3-14.7-2.5-20-7.7L68.6,442.5z M143,442.7
	c-4.9-5.5-7.4-12.7-7-20l0,0v-57.5h18.9v57.4c-0.3,2.5,0.4,5,1.9,7l0,0c1.9,1.6,4.3,2.3,6.7,2h26.3l-6.5,18.4h-20
	c-7.4,0.3-14.6-2.4-20-7.5L143,442.7z M300.2,450v-32.4l-28.6-52.5H293l16.6,32.9l16.7-32.9h21.4l-28.5,52.5V450H300.2z
	 M253.8,377.1c-4.1-12-10-12-13.2-12h-5.3c-3.1,0-9,0-13.2,12c-6.1,18.3-25.3,72.9-25.3,72.9h20l5.5-16.4h31.4l5.6,16.4h20
	L253.8,377.1z M228.3,416l10-28.8l10,28.8H228.3z M290.2,320.9c-1.5-4.4-3.7-4.4-4.8-4.4h-1.9c-1.1,0-3.3,0-4.8,4.4l-9.3,26.8h7.4
	l2-6h11.4l2,6h7.4L290.2,320.9z M280.2,335.2l3.6-10.6l3.6,10.6H280.2z M34.9,347.7v-20.6c0.1-2.4-1.9-4.4-4.3-4.5
	c-0.1,0-0.2,0-0.3,0l0,0c-2.4-0.1-4.4,1.7-4.5,4.1c0,0.1,0,0.3,0,0.4l0,0v20.6h-7v-20.6c0.1-2.4-1.7-4.4-4.1-4.5c-0.1,0-0.3,0-0.4,0
	l0,0c-2.4-0.1-4.5,1.8-4.6,4.2c0,0.1,0,0.2,0,0.3h0.5v20.6H2.9v-20.5c-0.1-6.2,4.8-11.3,11-11.4c0.2,0,0.3,0,0.5,0l0,0
	c3,0,6,1.2,8,3.5l0,0c2-2.3,5-3.5,8-3.5l0,0c6.2-0.2,11.3,4.7,11.5,10.9c0,0.2,0,0.3,0,0.5l0,0v20.5H34.9z M41.2,347.1L41.2,347.1z
	 M69.6,331.9c-0.4-8.6,6.2-15.8,14.8-16.2c0.2,0,0.3,0,0.5,0l0,0c8.6,0.1,15.4,7.1,15.3,15.7c0,0.2,0,0.3,0,0.5l0,0
	c0.4,8.6-6.2,15.8-14.8,16.2c-0.2,0-0.3,0-0.5,0l0,0c-8.6-0.1-15.4-7.1-15.3-15.7C69.6,332.2,69.6,332.1,69.6,331.9z M76.6,331.9
	c-0.5,5,3.1,9.5,8.1,10c0.1,0,0.1,0,0.2,0l0,0c5-0.4,8.7-4.8,8.3-9.8c0-0.1,0-0.1,0-0.2l0,0c0.6-4.9-3-9.4-7.9-10
	c-0.1,0-0.3,0-0.4,0l0,0c-5,0.4-8.7,4.7-8.3,9.6C76.5,331.6,76.6,331.8,76.6,331.9z M148.1,319c2.1,2.2,3.3,5.2,3.2,8.2l0,0v20h-6.9
	v-20.1c0.2-2.3-1.4-4.3-3.6-4.5c-0.3,0-0.6,0-1,0l0,0c-2.3-0.2-4.3,1.4-4.5,3.7c0,0.3,0,0.6,0,0.8l0,0v20.6h-6.9v-20
	c-0.1-3,1.1-6,3.2-8.2l0,0c2.2-2.1,5.2-3.3,8.3-3.2l0,0c3.1-0.1,6.1,1.1,8.3,3.2l0,0 M193.3,347.7h-11.7v-31.2h11.7
	c3.8-0.1,7.4,1.5,10,4.2l0,0c2.6,3.2,4,7.3,3.8,11.4l0,0c0.2,4.1-1.2,8.1-3.8,11.3l0,0C200.7,346.2,197.1,347.7,193.3,347.7
	L193.3,347.7 M193.3,323h-4.8v18.1h4.8c6.3,0,7.1-5.5,7.2-9.1l0,0C200.5,327.6,199.3,323,193.3,323L193.3,323 M234.2,347.7v-31.2
	h6.9v31.2H234.2z M333.8,347.7c-2.8,0.2-5.5-0.9-7.5-2.8l0,0c-1.8-2-2.7-4.6-2.6-7.3l0,0v-21.1h6.9v21c0,2.6,0.6,3.2,3.1,3.3h10v6.9
	H333.8z"/>
<path class="st2" d="M209.7,139h40v40h-40V139z M161.2,73.4c13.4,0,24.3,10.9,24.3,24.3S174.6,122,161.2,122
	c-13.4,0-24.3-10.9-24.3-24.3S147.7,73.4,161.2,73.4z"/>
</svg>
