<?xml version="1.0" encoding="utf-8"?>
<!-- Generator: Adobe Illustrator 19.0.0, SVG Export Plug-In . SVG Version: 6.00 Build 0)  -->
<svg version="1.1" id="layer" xmlns="http://www.w3.org/2000/svg" xmlns:xlink="http://www.w3.org/1999/xlink" x="0px" y="0px"
	 viewBox="-153 -46 652 652" style="enable-background:new -153 -46 652 652;" xml:space="preserve">
<style type="text/css">
	.st0{fill:#3C3C3B;}
	.st1{fill:url(#SVGID_1_);}
</style>
<path class="st0" d="M311.1,330.3h-12.7v-62.8c6.5-2.5,13.4-3.9,20.4-3.9c15.3,0,25.8,8.7,25.8,23.5c0,16.3-9.8,25.4-26,25.4H318
	v-11c7.9,0,13.8-4.4,13.8-13.9c0-8.1-5.3-12.6-13.1-12.6c-2.6-0.1-5.1,0.3-7.6,1.2L311.1,330.3z M464.5,301.4
	c-5.4,0-8.2-2.6-8.2-7.9v-18.3h16.4v-10.3h-16.4v-17.4h-12.6v46.9c0,13.8,7.7,18.3,19.9,18.3c3.2,0,6.5-0.3,9.7-0.8v-11.6
	C470.4,301,467.5,301.5,464.5,301.4z M56.5,267.1c-4-2.4-8.6-3.6-13.3-3.5c-14.2,0-24.6,9.7-24.6,24.5s9.6,24.3,24.7,24.3
	c4.8,0.1,9.5-1.1,13.6-3.5v-11.7c-3.4,2.7-7.5,4.2-11.8,4.2c-7.1,0.5-13.3-4.8-13.8-11.9c0-0.5,0-1,0-1.5
	c-0.4-6.8,4.7-12.7,11.6-13.2c0.6,0,1.2,0,1.7,0c4.4-0.1,8.6,1.4,12,4.3V267.1z M63.3,311.4h12.5v-35c2.8-1,5.8-1.4,8.8-1.4
	c5.4,0,8.3,2.7,8.3,8v28.4h12.6v-29.2c0-13.8-8.1-18.4-18.2-18.4c-3.9,0-7.8,0.7-11.5,2v-22.2H63.3L63.3,311.4z M141.9,288.2
	c0,13.5,10.9,24.4,24.4,24.4c13.5,0,24.4-10.9,24.4-24.4s-10.9-24.4-24.4-24.4C152.8,263.7,141.9,274.7,141.9,288.2L141.9,288.2z
	 M178,288.2c0,8.4-4.9,13.5-11.7,13.5c-6.8,0-11.7-5.2-11.7-13.5s4.9-13.5,11.7-13.5C173.1,274.7,178,279.7,178,288.2L178,288.2z
	 M196.6,311.4h12.6v-35c2.8-0.9,5.8-1.4,8.8-1.4c5.4,0,8.3,2.7,8.3,8v28.4H239v-29.2c0-13.9-7.7-18.4-20-18.4
	c-7.6,0.1-15.1,1.5-22.3,4.1L196.6,311.4z M244.1,288.2c0,13.5,10.9,24.4,24.4,24.4c13.5,0,24.4-10.9,24.4-24.4
	s-10.9-24.4-24.4-24.4C255.1,263.7,244.1,274.7,244.1,288.2L244.1,288.2z M280.3,288.2c0,8.4-4.9,13.5-11.7,13.5
	s-11.7-5.2-11.7-13.5s4.9-13.5,11.7-13.5S280.2,279.7,280.3,288.2L280.3,288.2z M132.9,263.8c-12.1,0-20,4.5-20,18.4v29.3h12.7
	v-28.4c0-5.2,2.8-8,8.3-8c3,0,5.9,0.4,8.8,1.2v-11.8C139.4,264,136.1,263.7,132.9,263.8L132.9,263.8z M403.6,308.2
	c4.6,2.6,9.9,3.9,15.2,3.8c10.9,0,18.5-4.6,18.5-14.8c0-8.4-4.1-12.9-16.1-15.2c-4.4-1.1-6.1-2.3-6.1-4.7c0-2.4,1.8-4,6-4
	c4.8,0.1,9.4,1.7,13.3,4.5v-11.2c-4.2-2.4-8.9-3.6-13.7-3.5c-10,0-17.8,4.7-17.8,15c0,8.5,4.4,12.7,15,14.6c5.2,1.1,7.1,2.2,7.1,5
	s-2.6,4.1-6.5,4.1c-5.4-0.2-10.5-2-14.9-5.2L403.6,308.2z M350.1,288.1c0,13.5,10.9,24.4,24.4,24.4c13.5,0,24.4-10.9,24.4-24.4
	s-10.9-24.4-24.4-24.4C361,263.7,350.1,274.6,350.1,288.1L350.1,288.1z M386.2,288.1c0,8.4-4.9,13.5-11.7,13.5
	c-6.8,0-11.7-5.2-11.7-13.5s4.9-13.5,11.7-13.5C381.3,274.6,386.2,279.7,386.2,288.1L386.2,288.1z"/>
<linearGradient id="SVGID_1_" gradientUnits="userSpaceOnUse" x1="-126.2353" y1="235.0117" x2="-70.1716" y2="282.0669" gradientTransform="matrix(1 0 0 -1 0 560)">
	<stop  offset="0" style="stop-color:#0067AA"/>
	<stop  offset="0.35" style="stop-color:#0082C1"/>
	<stop  offset="0.75" style="stop-color:#009AD5"/>
	<stop  offset="1" style="stop-color:#00A3DD"/>
</linearGradient>
<path class="st1" d="M-49.8,273.1c-0.6,0.3-1.3,0.3-1.9,0l-3-1.8c-0.3-0.2-0.5-0.4-0.6-0.7l0,0c-0.2-0.3-0.3-0.6-0.3-1v-3.5
	c0-0.6,0.3-1.2,0.9-1.6l36.1-21l-50.7-27.6c-1.3-0.6-2.8-0.6-4.1,0l-50.6,27.5l56.6,33c0.6,0.3,0.9,0.9,0.9,1.6v48.1
	c0,0.7-0.4,1.2-1,1.6l-3,1.7c-0.3,0.1-0.6,0.2-0.9,0.2l0,0c-0.3,0-0.7-0.1-1-0.2l-3-1.7c-0.6-0.3-0.9-0.9-1-1.6v-42.9
	c0-0.3-0.2-0.7-0.5-0.9l-49.9-29v56.8c0.1,1.4,0.8,2.7,2,3.5l51.4,30.4c1.3,0.6,2.7,0.6,4,0l51.4-30.3c1.2-0.8,1.9-2.1,2-3.5v-56.8
	L-49.8,273.1z"/>
</svg>
